<svg xmlns="http://www.w3.org/2000/svg" width="1123.703" height="1123.703" viewBox="0 0 1123.703 1123.703">
  <path id="wordpress" d="M1005.2,319.553a503.683,503.683,0,0,1,61.71,242.3c0,186.3-100.946,349.1-251.1,436.605L970.083,552.393c28.795-72.1,38.393-129.741,38.393-180.916a396.45,396.45,0,0,0-3.277-51.971m-373.678,4.916c30.293-1.4,57.683-4.916,57.683-4.916,27.25-3.512,24.066-43.543-3.137-42.092,0,0-82.171,6.321-134.844,6.321-49.818,0-133.44-7.023-133.44-7.023-27.39-1.4-30.949,40.032-3.512,41.437,0,0,25.283,2.856,52.674,4.214L545.6,537.973,434.639,869.465l-183.96-546.4c30.387-1.4,57.777-4.682,57.777-4.682,27.39-3.512,24.16-43.543-3.043-41.952,0,0-81.749,6.461-134.563,6.461-9.364,0-20.508-.375-32.306-.7,91.394-134.7,247.027-225.3,423.308-225.3A502.932,502.932,0,0,1,902.989,189.531c-2.154-.14-4.261-.421-6.6-.421-49.63,0-84.84,43.216-84.84,89.615,0,41.671,24.019,76.927,49.63,118.5,19.243,33.711,41.671,76.927,41.671,139.386,0,42.841-16.575,93.361-38.44,162.89L814.076,867.358l-182.6-543.591.047.655Zm-69.67,742.346a505.509,505.509,0,0,1-142.71-20.461L570.7,605.91l155.211,425.462a75.357,75.357,0,0,0,3.652,6.976,505.538,505.538,0,0,1-167.713,28.514M56.7,561.851a502.527,502.527,0,0,1,43.778-205.544l240.847,660.128C172.957,934.546,56.747,761.824,56.7,561.851M561.851,0C252.131,0,0,252.131,0,561.851S252.131,1123.7,561.851,1123.7,1123.7,871.572,1123.7,561.851,871.572,0,561.851,0" fill="#42b883"/>
</svg>
